<?xml version="1.0" standalone="no"?>
<!DOCTYPE svg PUBLIC "-//W3C//DTD SVG 20010904//EN"
 "http://www.w3.org/TR/2001/REC-SVG-20010904/DTD/svg10.dtd">
<svg version="1.0" xmlns="http://www.w3.org/2000/svg"
 width="200.000000pt" height="200.000000pt" viewBox="0 0 200.000000 200.000000"
 preserveAspectRatio="xMidYMid meet">

<g transform="translate(0.000000,200.000000) scale(0.100000,-0.100000)"
fill="#000000" stroke="none">
<path d="M0 1000 l0 -1000 1000 0 1000 0 0 1000 0 1000 -1000 0 -1000 0 0
-1000z m850 94 l0 -706 153 3 c145 4 154 5 199 31 36 22 53 41 75 85 l28 58 0
235 0 235 -28 58 c-22 44 -39 63 -75 84 -43 26 -56 28 -179 31 l-132 4 -9 27
c-6 14 -13 34 -17 44 -7 18 0 19 156 15 155 -3 167 -5 215 -30 63 -33 116 -91
140 -154 17 -44 19 -78 19 -314 0 -236 -2 -270 -19 -314 -24 -63 -77 -121
-140 -154 -50 -26 -55 -27 -263 -30 l-213 -3 0 745 0 745 23 4 c12 2 32 5 45
6 l22 1 0 -706z"/>
</g>
</svg>
